<svg xmlns="http://www.w3.org/2000/svg" width="980" height="460" viewBox="0 0 980 460">
<rect width="100%" height="100%" fill="#ffffff"/>
<style>
text { font-family: Arial, 'Microsoft YaHei', sans-serif; fill: #1f2933; }
.title { font-size: 22px; font-weight: 700; }
.axis { font-size: 12px; fill: #52606d; }
.legend { font-size: 12px; fill: #334e68; }
.grid { stroke: #e4e7eb; stroke-width: 1; }
.axisline { stroke: #9aa5b1; stroke-width: 1; }
</style>
<text x="32" y="34" class="title">Migration Direction vs Daily Mean</text>
<rect x="88.0" y="64.0" width="32.1" height="42.6" fill="#f4f5f6"/>
<rect x="119.8" y="64.0" width="32.1" height="42.6" fill="#4c78a8"/>
<rect x="151.5" y="64.0" width="32.1" height="42.6" fill="#f7f0e9"/>
<rect x="183.2" y="64.0" width="32.1" height="42.6" fill="#f7e9dc"/>
<rect x="215.0" y="64.0" width="32.1" height="42.6" fill="#f7e9dc"/>
<rect x="246.8" y="64.0" width="32.1" height="42.6" fill="#f7e9dc"/>
<rect x="278.5" y="64.0" width="32.1" height="42.6" fill="#f7e9dc"/>
<rect x="310.2" y="64.0" width="32.1" height="42.6" fill="#f7e9dc"/>
<rect x="342.0" y="64.0" width="32.1" height="42.6" fill="#f7ede4"/>
<rect x="373.8" y="64.0" width="32.1" height="42.6" fill="#f7f4f1"/>
<rect x="405.5" y="64.0" width="32.1" height="42.6" fill="#f2f3f5"/>
<rect x="437.2" y="64.0" width="32.1" height="42.6" fill="#eef0f3"/>
<rect x="469.0" y="64.0" width="32.1" height="42.6" fill="#eef0f3"/>
<rect x="500.8" y="64.0" width="32.1" height="42.6" fill="#eef0f3"/>
<rect x="532.5" y="64.0" width="32.1" height="42.6" fill="#f2f3f5"/>
<rect x="564.2" y="64.0" width="32.1" height="42.6" fill="#f7f6f6"/>
<rect x="596.0" y="64.0" width="32.1" height="42.6" fill="#f7f2ee"/>
<rect x="627.8" y="64.0" width="32.1" height="42.6" fill="#f7f6f6"/>
<rect x="659.5" y="64.0" width="32.1" height="42.6" fill="#f2f3f5"/>
<rect x="691.2" y="64.0" width="32.1" height="42.6" fill="#f7f6f6"/>
<rect x="723.0" y="64.0" width="32.1" height="42.6" fill="#f7f0e9"/>
<rect x="754.8" y="64.0" width="32.1" height="42.6" fill="#f7e9dc"/>
<rect x="786.5" y="64.0" width="32.1" height="42.6" fill="#f7e9dc"/>
<rect x="818.2" y="64.0" width="32.1" height="42.6" fill="#f7e9dc"/>
<rect x="88.0" y="106.2" width="32.1" height="42.6" fill="#e5eaef"/>
<rect x="119.8" y="106.2" width="32.1" height="42.6" fill="#e9edf1"/>
<rect x="151.5" y="106.2" width="32.1" height="42.6" fill="#eff1f3"/>
<rect x="183.2" y="106.2" width="32.1" height="42.6" fill="#f7f6f5"/>
<rect x="215.0" y="106.2" width="32.1" height="42.6" fill="#f7f6f5"/>
<rect x="246.8" y="106.2" width="32.1" height="42.6" fill="#f7f6f5"/>
<rect x="278.5" y="106.2" width="32.1" height="42.6" fill="#f7f6f5"/>
<rect x="310.2" y="106.2" width="32.1" height="42.6" fill="#f7f6f5"/>
<rect x="342.0" y="106.2" width="32.1" height="42.6" fill="#f7f6f5"/>
<rect x="373.8" y="106.2" width="32.1" height="42.6" fill="#f7f6f5"/>
<rect x="405.5" y="106.2" width="32.1" height="42.6" fill="#f7f6f5"/>
<rect x="437.2" y="106.2" width="32.1" height="42.6" fill="#f7f6f5"/>
<rect x="469.0" y="106.2" width="32.1" height="42.6" fill="#f7f6f5"/>
<rect x="500.8" y="106.2" width="32.1" height="42.6" fill="#f7f6f5"/>
<rect x="532.5" y="106.2" width="32.1" height="42.6" fill="#f7f6f5"/>
<rect x="564.2" y="106.2" width="32.1" height="42.6" fill="#f7f6f5"/>
<rect x="596.0" y="106.2" width="32.1" height="42.6" fill="#f7f6f5"/>
<rect x="627.8" y="106.2" width="32.1" height="42.6" fill="#f7f6f5"/>
<rect x="659.5" y="106.2" width="32.1" height="42.6" fill="#f7f6f5"/>
<rect x="691.2" y="106.2" width="32.1" height="42.6" fill="#f7f6f5"/>
<rect x="723.0" y="106.2" width="32.1" height="42.6" fill="#f7f6f5"/>
<rect x="754.8" y="106.2" width="32.1" height="42.6" fill="#f7f6f5"/>
<rect x="786.5" y="106.2" width="32.1" height="42.6" fill="#f7f6f5"/>
<rect x="818.2" y="106.2" width="32.1" height="42.6" fill="#f7f6f5"/>
<rect x="88.0" y="148.5" width="32.1" height="42.6" fill="#f7f4f2"/>
<rect x="119.8" y="148.5" width="32.1" height="42.6" fill="#f1f3f4"/>
<rect x="151.5" y="148.5" width="32.1" height="42.6" fill="#f7f4f2"/>
<rect x="183.2" y="148.5" width="32.1" height="42.6" fill="#f7eee5"/>
<rect x="215.0" y="148.5" width="32.1" height="42.6" fill="#f7ece2"/>
<rect x="246.8" y="148.5" width="32.1" height="42.6" fill="#f7f4f2"/>
<rect x="278.5" y="148.5" width="32.1" height="42.6" fill="#f1f3f4"/>
<rect x="310.2" y="148.5" width="32.1" height="42.6" fill="#f1f3f4"/>
<rect x="342.0" y="148.5" width="32.1" height="42.6" fill="#f1f3f4"/>
<rect x="373.8" y="148.5" width="32.1" height="42.6" fill="#f1f3f4"/>
<rect x="405.5" y="148.5" width="32.1" height="42.6" fill="#f1f3f4"/>
<rect x="437.2" y="148.5" width="32.1" height="42.6" fill="#f1f3f4"/>
<rect x="469.0" y="148.5" width="32.1" height="42.6" fill="#f1f3f4"/>
<rect x="500.8" y="148.5" width="32.1" height="42.6" fill="#f1f3f4"/>
<rect x="532.5" y="148.5" width="32.1" height="42.6" fill="#f1f3f4"/>
<rect x="564.2" y="148.5" width="32.1" height="42.6" fill="#f1f3f4"/>
<rect x="596.0" y="148.5" width="32.1" height="42.6" fill="#f1f3f4"/>
<rect x="627.8" y="148.5" width="32.1" height="42.6" fill="#f1f3f4"/>
<rect x="659.5" y="148.5" width="32.1" height="42.6" fill="#f1f3f4"/>
<rect x="691.2" y="148.5" width="32.1" height="42.6" fill="#f1f3f4"/>
<rect x="723.0" y="148.5" width="32.1" height="42.6" fill="#f1f3f4"/>
<rect x="754.8" y="148.5" width="32.1" height="42.6" fill="#f7f4f2"/>
<rect x="786.5" y="148.5" width="32.1" height="42.6" fill="#f7e7d8"/>
<rect x="818.2" y="148.5" width="32.1" height="42.6" fill="#f7e7d8"/>
<rect x="88.0" y="190.8" width="32.1" height="42.6" fill="#f4f5f6"/>
<rect x="119.8" y="190.8" width="32.1" height="42.6" fill="#5982ae"/>
<rect x="151.5" y="190.8" width="32.1" height="42.6" fill="#f7efe8"/>
<rect x="183.2" y="190.8" width="32.1" height="42.6" fill="#f7eadd"/>
<rect x="215.0" y="190.8" width="32.1" height="42.6" fill="#f7eade"/>
<rect x="246.8" y="190.8" width="32.1" height="42.6" fill="#f7eadd"/>
<rect x="278.5" y="190.8" width="32.1" height="42.6" fill="#f7eadd"/>
<rect x="310.2" y="190.8" width="32.1" height="42.6" fill="#f7e9dc"/>
<rect x="342.0" y="190.8" width="32.1" height="42.6" fill="#f7eee6"/>
<rect x="373.8" y="190.8" width="32.1" height="42.6" fill="#f7f4f1"/>
<rect x="405.5" y="190.8" width="32.1" height="42.6" fill="#f1f3f4"/>
<rect x="437.2" y="190.8" width="32.1" height="42.6" fill="#eef1f3"/>
<rect x="469.0" y="190.8" width="32.1" height="42.6" fill="#eceff2"/>
<rect x="500.8" y="190.8" width="32.1" height="42.6" fill="#eceff2"/>
<rect x="532.5" y="190.8" width="32.1" height="42.6" fill="#f1f3f4"/>
<rect x="564.2" y="190.8" width="32.1" height="42.6" fill="#f7f6f6"/>
<rect x="596.0" y="190.8" width="32.1" height="42.6" fill="#f7f2ee"/>
<rect x="627.8" y="190.8" width="32.1" height="42.6" fill="#f6f7f7"/>
<rect x="659.5" y="190.8" width="32.1" height="42.6" fill="#f1f2f4"/>
<rect x="691.2" y="190.8" width="32.1" height="42.6" fill="#f7f6f6"/>
<rect x="723.0" y="190.8" width="32.1" height="42.6" fill="#f7f0e8"/>
<rect x="754.8" y="190.8" width="32.1" height="42.6" fill="#f7eadd"/>
<rect x="786.5" y="190.8" width="32.1" height="42.6" fill="#f7eade"/>
<rect x="818.2" y="190.8" width="32.1" height="42.6" fill="#f7e9db"/>
<rect x="88.0" y="233.0" width="32.1" height="42.6" fill="#e6ebef"/>
<rect x="119.8" y="233.0" width="32.1" height="42.6" fill="#eaedf1"/>
<rect x="151.5" y="233.0" width="32.1" height="42.6" fill="#f0f2f4"/>
<rect x="183.2" y="233.0" width="32.1" height="42.6" fill="#f7f5f3"/>
<rect x="215.0" y="233.0" width="32.1" height="42.6" fill="#f7f7f6"/>
<rect x="246.8" y="233.0" width="32.1" height="42.6" fill="#f7f6f5"/>
<rect x="278.5" y="233.0" width="32.1" height="42.6" fill="#f7f6f5"/>
<rect x="310.2" y="233.0" width="32.1" height="42.6" fill="#f7f7f6"/>
<rect x="342.0" y="233.0" width="32.1" height="42.6" fill="#f7f6f6"/>
<rect x="373.8" y="233.0" width="32.1" height="42.6" fill="#f7f5f4"/>
<rect x="405.5" y="233.0" width="32.1" height="42.6" fill="#f7f6f5"/>
<rect x="437.2" y="233.0" width="32.1" height="42.6" fill="#f7f6f4"/>
<rect x="469.0" y="233.0" width="32.1" height="42.6" fill="#f7f5f3"/>
<rect x="500.8" y="233.0" width="32.1" height="42.6" fill="#f7f5f4"/>
<rect x="532.5" y="233.0" width="32.1" height="42.6" fill="#f7f6f6"/>
<rect x="564.2" y="233.0" width="32.1" height="42.6" fill="#f7f6f5"/>
<rect x="596.0" y="233.0" width="32.1" height="42.6" fill="#f7f5f3"/>
<rect x="627.8" y="233.0" width="32.1" height="42.6" fill="#f7f6f6"/>
<rect x="659.5" y="233.0" width="32.1" height="42.6" fill="#f7f6f4"/>
<rect x="691.2" y="233.0" width="32.1" height="42.6" fill="#f7f5f3"/>
<rect x="723.0" y="233.0" width="32.1" height="42.6" fill="#f7f6f5"/>
<rect x="754.8" y="233.0" width="32.1" height="42.6" fill="#f7f5f3"/>
<rect x="786.5" y="233.0" width="32.1" height="42.6" fill="#f7f6f5"/>
<rect x="818.2" y="233.0" width="32.1" height="42.6" fill="#f7f7f6"/>
<rect x="88.0" y="275.2" width="32.1" height="42.6" fill="#f7f5f3"/>
<rect x="119.8" y="275.2" width="32.1" height="42.6" fill="#f2f3f5"/>
<rect x="151.5" y="275.2" width="32.1" height="42.6" fill="#f7f5f2"/>
<rect x="183.2" y="275.2" width="32.1" height="42.6" fill="#f7efe6"/>
<rect x="215.0" y="275.2" width="32.1" height="42.6" fill="#f7eee5"/>
<rect x="246.8" y="275.2" width="32.1" height="42.6" fill="#f7f5f4"/>
<rect x="278.5" y="275.2" width="32.1" height="42.6" fill="#f2f3f5"/>
<rect x="310.2" y="275.2" width="32.1" height="42.6" fill="#f1f2f4"/>
<rect x="342.0" y="275.2" width="32.1" height="42.6" fill="#f1f2f4"/>
<rect x="373.8" y="275.2" width="32.1" height="42.6" fill="#f0f2f4"/>
<rect x="405.5" y="275.2" width="32.1" height="42.6" fill="#f1f3f4"/>
<rect x="437.2" y="275.2" width="32.1" height="42.6" fill="#f0f2f4"/>
<rect x="469.0" y="275.2" width="32.1" height="42.6" fill="#f1f3f4"/>
<rect x="500.8" y="275.2" width="32.1" height="42.6" fill="#f0f2f4"/>
<rect x="532.5" y="275.2" width="32.1" height="42.6" fill="#f0f2f4"/>
<rect x="564.2" y="275.2" width="32.1" height="42.6" fill="#f1f2f4"/>
<rect x="596.0" y="275.2" width="32.1" height="42.6" fill="#f2f3f5"/>
<rect x="627.8" y="275.2" width="32.1" height="42.6" fill="#f1f3f4"/>
<rect x="659.5" y="275.2" width="32.1" height="42.6" fill="#f2f4f5"/>
<rect x="691.2" y="275.2" width="32.1" height="42.6" fill="#f2f3f5"/>
<rect x="723.0" y="275.2" width="32.1" height="42.6" fill="#f1f2f4"/>
<rect x="754.8" y="275.2" width="32.1" height="42.6" fill="#f7f5f3"/>
<rect x="786.5" y="275.2" width="32.1" height="42.6" fill="#f7e7d8"/>
<rect x="818.2" y="275.2" width="32.1" height="42.6" fill="#f7e2cd"/>
<rect x="88.0" y="317.5" width="32.1" height="42.6" fill="#edf0f2"/>
<rect x="119.8" y="317.5" width="32.1" height="42.6" fill="#f6f6f7"/>
<rect x="151.5" y="317.5" width="32.1" height="42.6" fill="#f7f3f0"/>
<rect x="183.2" y="317.5" width="32.1" height="42.6" fill="#f7efe7"/>
<rect x="215.0" y="317.5" width="32.1" height="42.6" fill="#f7efe8"/>
<rect x="246.8" y="317.5" width="32.1" height="42.6" fill="#f7eee6"/>
<rect x="278.5" y="317.5" width="32.1" height="42.6" fill="#f7eee6"/>
<rect x="310.2" y="317.5" width="32.1" height="42.6" fill="#f7eee5"/>
<rect x="342.0" y="317.5" width="32.1" height="42.6" fill="#f7f2ed"/>
<rect x="373.8" y="317.5" width="32.1" height="42.6" fill="#f5f5f6"/>
<rect x="405.5" y="317.5" width="32.1" height="42.6" fill="#e9ecf0"/>
<rect x="437.2" y="317.5" width="32.1" height="42.6" fill="#e6ebef"/>
<rect x="469.0" y="317.5" width="32.1" height="42.6" fill="#e6eaef"/>
<rect x="500.8" y="317.5" width="32.1" height="42.6" fill="#e4e9ee"/>
<rect x="532.5" y="317.5" width="32.1" height="42.6" fill="#ebeef1"/>
<rect x="564.2" y="317.5" width="32.1" height="42.6" fill="#f2f4f5"/>
<rect x="596.0" y="317.5" width="32.1" height="42.6" fill="#f7f6f5"/>
<rect x="627.8" y="317.5" width="32.1" height="42.6" fill="#f0f1f4"/>
<rect x="659.5" y="317.5" width="32.1" height="42.6" fill="#e8ecf0"/>
<rect x="691.2" y="317.5" width="32.1" height="42.6" fill="#f2f3f5"/>
<rect x="723.0" y="317.5" width="32.1" height="42.6" fill="#f7f4f1"/>
<rect x="754.8" y="317.5" width="32.1" height="42.6" fill="#f7eee6"/>
<rect x="786.5" y="317.5" width="32.1" height="42.6" fill="#f7eee6"/>
<rect x="818.2" y="317.5" width="32.1" height="42.6" fill="#f7ede4"/>
<rect x="88.0" y="359.8" width="32.1" height="42.6" fill="#e6eaef"/>
<rect x="119.8" y="359.8" width="32.1" height="42.6" fill="#eaedf1"/>
<rect x="151.5" y="359.8" width="32.1" height="42.6" fill="#eff1f3"/>
<rect x="183.2" y="359.8" width="32.1" height="42.6" fill="#f7f5f4"/>
<rect x="215.0" y="359.8" width="32.1" height="42.6" fill="#f7f7f7"/>
<rect x="246.8" y="359.8" width="32.1" height="42.6" fill="#f7f5f3"/>
<rect x="278.5" y="359.8" width="32.1" height="42.6" fill="#f7f5f4"/>
<rect x="310.2" y="359.8" width="32.1" height="42.6" fill="#f7f7f7"/>
<rect x="342.0" y="359.8" width="32.1" height="42.6" fill="#f7f7f6"/>
<rect x="373.8" y="359.8" width="32.1" height="42.6" fill="#f7f5f4"/>
<rect x="405.5" y="359.8" width="32.1" height="42.6" fill="#f7f7f7"/>
<rect x="437.2" y="359.8" width="32.1" height="42.6" fill="#f7f5f3"/>
<rect x="469.0" y="359.8" width="32.1" height="42.6" fill="#f7f4f1"/>
<rect x="500.8" y="359.8" width="32.1" height="42.6" fill="#f7f5f4"/>
<rect x="532.5" y="359.8" width="32.1" height="42.6" fill="#f7f6f5"/>
<rect x="564.2" y="359.8" width="32.1" height="42.6" fill="#f7f5f4"/>
<rect x="596.0" y="359.8" width="32.1" height="42.6" fill="#f7f5f3"/>
<rect x="627.8" y="359.8" width="32.1" height="42.6" fill="#f7f7f6"/>
<rect x="659.5" y="359.8" width="32.1" height="42.6" fill="#f7f6f5"/>
<rect x="691.2" y="359.8" width="32.1" height="42.6" fill="#f7f5f4"/>
<rect x="723.0" y="359.8" width="32.1" height="42.6" fill="#f7f6f5"/>
<rect x="754.8" y="359.8" width="32.1" height="42.6" fill="#f7f6f5"/>
<rect x="786.5" y="359.8" width="32.1" height="42.6" fill="#f7f6f5"/>
<rect x="818.2" y="359.8" width="32.1" height="42.6" fill="#f7f7f6"/>
<text x="103.9" y="430" text-anchor="middle" class="axis">1</text>
<text x="167.4" y="430" text-anchor="middle" class="axis">3</text>
<text x="230.9" y="430" text-anchor="middle" class="axis">5</text>
<text x="294.4" y="430" text-anchor="middle" class="axis">7</text>
<text x="357.9" y="430" text-anchor="middle" class="axis">9</text>
<text x="421.4" y="430" text-anchor="middle" class="axis">11</text>
<text x="484.9" y="430" text-anchor="middle" class="axis">13</text>
<text x="548.4" y="430" text-anchor="middle" class="axis">15</text>
<text x="611.9" y="430" text-anchor="middle" class="axis">17</text>
<text x="675.4" y="430" text-anchor="middle" class="axis">19</text>
<text x="738.9" y="430" text-anchor="middle" class="axis">21</text>
<text x="802.4" y="430" text-anchor="middle" class="axis">23</text>
<text x="78" y="90.2" text-anchor="end" class="axis">DCC 1</text>
<text x="78" y="132.4" text-anchor="end" class="axis">DCC 2</text>
<text x="78" y="174.7" text-anchor="end" class="axis">DCC 3</text>
<text x="78" y="216.9" text-anchor="end" class="axis">DCC 4</text>
<text x="78" y="259.2" text-anchor="end" class="axis">DCC 5</text>
<text x="78" y="301.4" text-anchor="end" class="axis">DCC 6</text>
<text x="78" y="343.7" text-anchor="end" class="axis">DCC 7</text>
<text x="78" y="385.9" text-anchor="end" class="axis">DCC 8</text>
<text x="469.0" y="452" text-anchor="middle" class="axis">Time (h)</text>
<text x="870" y="76" class="legend">min -0.043</text>
<text x="870" y="98" class="legend">max 0.229</text>
</svg>