<svg xmlns="http://www.w3.org/2000/svg" width="980" height="460" viewBox="0 0 980 460">
<rect width="100%" height="100%" fill="#ffffff"/>
<style>
text { font-family: Arial, 'Microsoft YaHei', sans-serif; fill: #1f2933; }
.title { font-size: 22px; font-weight: 700; }
.axis { font-size: 12px; fill: #52606d; }
.legend { font-size: 12px; fill: #334e68; }
.grid { stroke: #e4e7eb; stroke-width: 1; }
.axisline { stroke: #9aa5b1; stroke-width: 1; }
</style>
<text x="32" y="34" class="title">Effective Workload after Migration</text>
<rect x="88.0" y="64.0" width="32.1" height="42.6" fill="#eef3f8"/>
<rect x="119.8" y="64.0" width="32.1" height="42.6" fill="#2f4858"/>
<rect x="151.5" y="64.0" width="32.1" height="42.6" fill="#eef3f8"/>
<rect x="183.2" y="64.0" width="32.1" height="42.6" fill="#2f4858"/>
<rect x="215.0" y="64.0" width="32.1" height="42.6" fill="#2f4858"/>
<rect x="246.8" y="64.0" width="32.1" height="42.6" fill="#cfd7de"/>
<rect x="278.5" y="64.0" width="32.1" height="42.6" fill="#5e727f"/>
<rect x="310.2" y="64.0" width="32.1" height="42.6" fill="#2f4858"/>
<rect x="342.0" y="64.0" width="32.1" height="42.6" fill="#eef3f8"/>
<rect x="373.8" y="64.0" width="32.1" height="42.6" fill="#eef3f8"/>
<rect x="405.5" y="64.0" width="32.1" height="42.6" fill="#eef3f8"/>
<rect x="437.2" y="64.0" width="32.1" height="42.6" fill="#eef3f8"/>
<rect x="469.0" y="64.0" width="32.1" height="42.6" fill="#eef3f8"/>
<rect x="500.8" y="64.0" width="32.1" height="42.6" fill="#eef3f8"/>
<rect x="532.5" y="64.0" width="32.1" height="42.6" fill="#eef3f8"/>
<rect x="564.2" y="64.0" width="32.1" height="42.6" fill="#eef3f8"/>
<rect x="596.0" y="64.0" width="32.1" height="42.6" fill="#eef3f8"/>
<rect x="627.8" y="64.0" width="32.1" height="42.6" fill="#eef3f8"/>
<rect x="659.5" y="64.0" width="32.1" height="42.6" fill="#eef3f8"/>
<rect x="691.2" y="64.0" width="32.1" height="42.6" fill="#eef3f8"/>
<rect x="723.0" y="64.0" width="32.1" height="42.6" fill="#eef3f8"/>
<rect x="754.8" y="64.0" width="32.1" height="42.6" fill="#2f4858"/>
<rect x="786.5" y="64.0" width="32.1" height="42.6" fill="#2f4858"/>
<rect x="818.2" y="64.0" width="32.1" height="42.6" fill="#2f4858"/>
<rect x="88.0" y="106.2" width="32.1" height="42.6" fill="#eef3f8"/>
<rect x="119.8" y="106.2" width="32.1" height="42.6" fill="#eef3f8"/>
<rect x="151.5" y="106.2" width="32.1" height="42.6" fill="#eef3f8"/>
<rect x="183.2" y="106.2" width="32.1" height="42.6" fill="#2f4858"/>
<rect x="215.0" y="106.2" width="32.1" height="42.6" fill="#2f4858"/>
<rect x="246.8" y="106.2" width="32.1" height="42.6" fill="#2f4858"/>
<rect x="278.5" y="106.2" width="32.1" height="42.6" fill="#2f4858"/>
<rect x="310.2" y="106.2" width="32.1" height="42.6" fill="#2f4858"/>
<rect x="342.0" y="106.2" width="32.1" height="42.6" fill="#2f4858"/>
<rect x="373.8" y="106.2" width="32.1" height="42.6" fill="#2f4858"/>
<rect x="405.5" y="106.2" width="32.1" height="42.6" fill="#2f4858"/>
<rect x="437.2" y="106.2" width="32.1" height="42.6" fill="#2f4858"/>
<rect x="469.0" y="106.2" width="32.1" height="42.6" fill="#2f4858"/>
<rect x="500.8" y="106.2" width="32.1" height="42.6" fill="#2f4858"/>
<rect x="532.5" y="106.2" width="32.1" height="42.6" fill="#2f4858"/>
<rect x="564.2" y="106.2" width="32.1" height="42.6" fill="#2f4858"/>
<rect x="596.0" y="106.2" width="32.1" height="42.6" fill="#2f4858"/>
<rect x="627.8" y="106.2" width="32.1" height="42.6" fill="#2f4858"/>
<rect x="659.5" y="106.2" width="32.1" height="42.6" fill="#2f4858"/>
<rect x="691.2" y="106.2" width="32.1" height="42.6" fill="#2f4858"/>
<rect x="723.0" y="106.2" width="32.1" height="42.6" fill="#2f4858"/>
<rect x="754.8" y="106.2" width="32.1" height="42.6" fill="#2f4858"/>
<rect x="786.5" y="106.2" width="32.1" height="42.6" fill="#d7dee4"/>
<rect x="818.2" y="106.2" width="32.1" height="42.6" fill="#2f4858"/>
<rect x="88.0" y="148.5" width="32.1" height="42.6" fill="#eef3f8"/>
<rect x="119.8" y="148.5" width="32.1" height="42.6" fill="#eef3f8"/>
<rect x="151.5" y="148.5" width="32.1" height="42.6" fill="#eef3f8"/>
<rect x="183.2" y="148.5" width="32.1" height="42.6" fill="#eef3f8"/>
<rect x="215.0" y="148.5" width="32.1" height="42.6" fill="#eef3f8"/>
<rect x="246.8" y="148.5" width="32.1" height="42.6" fill="#eef3f8"/>
<rect x="278.5" y="148.5" width="32.1" height="42.6" fill="#eef3f8"/>
<rect x="310.2" y="148.5" width="32.1" height="42.6" fill="#eef3f8"/>
<rect x="342.0" y="148.5" width="32.1" height="42.6" fill="#eef3f8"/>
<rect x="373.8" y="148.5" width="32.1" height="42.6" fill="#eef3f8"/>
<rect x="405.5" y="148.5" width="32.1" height="42.6" fill="#eef3f8"/>
<rect x="437.2" y="148.5" width="32.1" height="42.6" fill="#eef3f8"/>
<rect x="469.0" y="148.5" width="32.1" height="42.6" fill="#eef3f8"/>
<rect x="500.8" y="148.5" width="32.1" height="42.6" fill="#eef3f8"/>
<rect x="532.5" y="148.5" width="32.1" height="42.6" fill="#eef3f8"/>
<rect x="564.2" y="148.5" width="32.1" height="42.6" fill="#eef3f8"/>
<rect x="596.0" y="148.5" width="32.1" height="42.6" fill="#eef3f8"/>
<rect x="627.8" y="148.5" width="32.1" height="42.6" fill="#eef3f8"/>
<rect x="659.5" y="148.5" width="32.1" height="42.6" fill="#eef3f8"/>
<rect x="691.2" y="148.5" width="32.1" height="42.6" fill="#eef3f8"/>
<rect x="723.0" y="148.5" width="32.1" height="42.6" fill="#eef3f8"/>
<rect x="754.8" y="148.5" width="32.1" height="42.6" fill="#eef3f8"/>
<rect x="786.5" y="148.5" width="32.1" height="42.6" fill="#eef3f8"/>
<rect x="818.2" y="148.5" width="32.1" height="42.6" fill="#eef3f8"/>
<rect x="88.0" y="190.8" width="32.1" height="42.6" fill="#eef3f8"/>
<rect x="119.8" y="190.8" width="32.1" height="42.6" fill="#415867"/>
<rect x="151.5" y="190.8" width="32.1" height="42.6" fill="#eef3f8"/>
<rect x="183.2" y="190.8" width="32.1" height="42.6" fill="#eef3f8"/>
<rect x="215.0" y="190.8" width="32.1" height="42.6" fill="#eef3f8"/>
<rect x="246.8" y="190.8" width="32.1" height="42.6" fill="#eef3f8"/>
<rect x="278.5" y="190.8" width="32.1" height="42.6" fill="#eef3f8"/>
<rect x="310.2" y="190.8" width="32.1" height="42.6" fill="#eef3f8"/>
<rect x="342.0" y="190.8" width="32.1" height="42.6" fill="#eef3f8"/>
<rect x="373.8" y="190.8" width="32.1" height="42.6" fill="#eef3f8"/>
<rect x="405.5" y="190.8" width="32.1" height="42.6" fill="#eef3f8"/>
<rect x="437.2" y="190.8" width="32.1" height="42.6" fill="#eef3f8"/>
<rect x="469.0" y="190.8" width="32.1" height="42.6" fill="#eef3f8"/>
<rect x="500.8" y="190.8" width="32.1" height="42.6" fill="#eef3f8"/>
<rect x="532.5" y="190.8" width="32.1" height="42.6" fill="#eef3f8"/>
<rect x="564.2" y="190.8" width="32.1" height="42.6" fill="#eef3f8"/>
<rect x="596.0" y="190.8" width="32.1" height="42.6" fill="#eef3f8"/>
<rect x="627.8" y="190.8" width="32.1" height="42.6" fill="#eef3f8"/>
<rect x="659.5" y="190.8" width="32.1" height="42.6" fill="#eef3f8"/>
<rect x="691.2" y="190.8" width="32.1" height="42.6" fill="#eef3f8"/>
<rect x="723.0" y="190.8" width="32.1" height="42.6" fill="#eef3f8"/>
<rect x="754.8" y="190.8" width="32.1" height="42.6" fill="#eef3f8"/>
<rect x="786.5" y="190.8" width="32.1" height="42.6" fill="#eef3f8"/>
<rect x="818.2" y="190.8" width="32.1" height="42.6" fill="#eef3f8"/>
<rect x="88.0" y="233.0" width="32.1" height="42.6" fill="#eef3f8"/>
<rect x="119.8" y="233.0" width="32.1" height="42.6" fill="#eef3f8"/>
<rect x="151.5" y="233.0" width="32.1" height="42.6" fill="#eef3f8"/>
<rect x="183.2" y="233.0" width="32.1" height="42.6" fill="#eef3f8"/>
<rect x="215.0" y="233.0" width="32.1" height="42.6" fill="#eef3f8"/>
<rect x="246.8" y="233.0" width="32.1" height="42.6" fill="#eef3f8"/>
<rect x="278.5" y="233.0" width="32.1" height="42.6" fill="#eef3f8"/>
<rect x="310.2" y="233.0" width="32.1" height="42.6" fill="#eef3f8"/>
<rect x="342.0" y="233.0" width="32.1" height="42.6" fill="#eef3f8"/>
<rect x="373.8" y="233.0" width="32.1" height="42.6" fill="#eef3f8"/>
<rect x="405.5" y="233.0" width="32.1" height="42.6" fill="#eef3f8"/>
<rect x="437.2" y="233.0" width="32.1" height="42.6" fill="#eef3f8"/>
<rect x="469.0" y="233.0" width="32.1" height="42.6" fill="#eef3f8"/>
<rect x="500.8" y="233.0" width="32.1" height="42.6" fill="#eef3f8"/>
<rect x="532.5" y="233.0" width="32.1" height="42.6" fill="#eef3f8"/>
<rect x="564.2" y="233.0" width="32.1" height="42.6" fill="#eef3f8"/>
<rect x="596.0" y="233.0" width="32.1" height="42.6" fill="#eef3f8"/>
<rect x="627.8" y="233.0" width="32.1" height="42.6" fill="#eef3f8"/>
<rect x="659.5" y="233.0" width="32.1" height="42.6" fill="#eef3f8"/>
<rect x="691.2" y="233.0" width="32.1" height="42.6" fill="#eef3f8"/>
<rect x="723.0" y="233.0" width="32.1" height="42.6" fill="#eef3f8"/>
<rect x="754.8" y="233.0" width="32.1" height="42.6" fill="#eef3f8"/>
<rect x="786.5" y="233.0" width="32.1" height="42.6" fill="#eef3f8"/>
<rect x="818.2" y="233.0" width="32.1" height="42.6" fill="#eef3f8"/>
<rect x="88.0" y="275.2" width="32.1" height="42.6" fill="#eef3f8"/>
<rect x="119.8" y="275.2" width="32.1" height="42.6" fill="#eef3f8"/>
<rect x="151.5" y="275.2" width="32.1" height="42.6" fill="#eef3f8"/>
<rect x="183.2" y="275.2" width="32.1" height="42.6" fill="#eef3f8"/>
<rect x="215.0" y="275.2" width="32.1" height="42.6" fill="#eef3f8"/>
<rect x="246.8" y="275.2" width="32.1" height="42.6" fill="#eef3f8"/>
<rect x="278.5" y="275.2" width="32.1" height="42.6" fill="#eef3f8"/>
<rect x="310.2" y="275.2" width="32.1" height="42.6" fill="#eef3f8"/>
<rect x="342.0" y="275.2" width="32.1" height="42.6" fill="#eef3f8"/>
<rect x="373.8" y="275.2" width="32.1" height="42.6" fill="#eef3f8"/>
<rect x="405.5" y="275.2" width="32.1" height="42.6" fill="#eef3f8"/>
<rect x="437.2" y="275.2" width="32.1" height="42.6" fill="#eef3f8"/>
<rect x="469.0" y="275.2" width="32.1" height="42.6" fill="#eef3f8"/>
<rect x="500.8" y="275.2" width="32.1" height="42.6" fill="#eef3f8"/>
<rect x="532.5" y="275.2" width="32.1" height="42.6" fill="#eef3f8"/>
<rect x="564.2" y="275.2" width="32.1" height="42.6" fill="#eef3f8"/>
<rect x="596.0" y="275.2" width="32.1" height="42.6" fill="#eef3f8"/>
<rect x="627.8" y="275.2" width="32.1" height="42.6" fill="#eef3f8"/>
<rect x="659.5" y="275.2" width="32.1" height="42.6" fill="#eef3f8"/>
<rect x="691.2" y="275.2" width="32.1" height="42.6" fill="#eef3f8"/>
<rect x="723.0" y="275.2" width="32.1" height="42.6" fill="#eef3f8"/>
<rect x="754.8" y="275.2" width="32.1" height="42.6" fill="#eef3f8"/>
<rect x="786.5" y="275.2" width="32.1" height="42.6" fill="#eef3f8"/>
<rect x="818.2" y="275.2" width="32.1" height="42.6" fill="#eef3f8"/>
<rect x="88.0" y="317.5" width="32.1" height="42.6" fill="#eef3f8"/>
<rect x="119.8" y="317.5" width="32.1" height="42.6" fill="#eef3f8"/>
<rect x="151.5" y="317.5" width="32.1" height="42.6" fill="#eef3f8"/>
<rect x="183.2" y="317.5" width="32.1" height="42.6" fill="#eef3f8"/>
<rect x="215.0" y="317.5" width="32.1" height="42.6" fill="#eef3f8"/>
<rect x="246.8" y="317.5" width="32.1" height="42.6" fill="#eef3f8"/>
<rect x="278.5" y="317.5" width="32.1" height="42.6" fill="#eef3f8"/>
<rect x="310.2" y="317.5" width="32.1" height="42.6" fill="#eef3f8"/>
<rect x="342.0" y="317.5" width="32.1" height="42.6" fill="#eef3f8"/>
<rect x="373.8" y="317.5" width="32.1" height="42.6" fill="#eef3f8"/>
<rect x="405.5" y="317.5" width="32.1" height="42.6" fill="#eef3f8"/>
<rect x="437.2" y="317.5" width="32.1" height="42.6" fill="#eef3f8"/>
<rect x="469.0" y="317.5" width="32.1" height="42.6" fill="#eef3f8"/>
<rect x="500.8" y="317.5" width="32.1" height="42.6" fill="#eef3f8"/>
<rect x="532.5" y="317.5" width="32.1" height="42.6" fill="#eef3f8"/>
<rect x="564.2" y="317.5" width="32.1" height="42.6" fill="#eef3f8"/>
<rect x="596.0" y="317.5" width="32.1" height="42.6" fill="#eef3f8"/>
<rect x="627.8" y="317.5" width="32.1" height="42.6" fill="#eef3f8"/>
<rect x="659.5" y="317.5" width="32.1" height="42.6" fill="#eef3f8"/>
<rect x="691.2" y="317.5" width="32.1" height="42.6" fill="#eef3f8"/>
<rect x="723.0" y="317.5" width="32.1" height="42.6" fill="#eef3f8"/>
<rect x="754.8" y="317.5" width="32.1" height="42.6" fill="#eef3f8"/>
<rect x="786.5" y="317.5" width="32.1" height="42.6" fill="#eef3f8"/>
<rect x="818.2" y="317.5" width="32.1" height="42.6" fill="#eef3f8"/>
<rect x="88.0" y="359.8" width="32.1" height="42.6" fill="#eef3f8"/>
<rect x="119.8" y="359.8" width="32.1" height="42.6" fill="#eef3f8"/>
<rect x="151.5" y="359.8" width="32.1" height="42.6" fill="#eef3f8"/>
<rect x="183.2" y="359.8" width="32.1" height="42.6" fill="#eef3f8"/>
<rect x="215.0" y="359.8" width="32.1" height="42.6" fill="#eef3f8"/>
<rect x="246.8" y="359.8" width="32.1" height="42.6" fill="#eef3f8"/>
<rect x="278.5" y="359.8" width="32.1" height="42.6" fill="#eef3f8"/>
<rect x="310.2" y="359.8" width="32.1" height="42.6" fill="#eef3f8"/>
<rect x="342.0" y="359.8" width="32.1" height="42.6" fill="#eef3f8"/>
<rect x="373.8" y="359.8" width="32.1" height="42.6" fill="#eef3f8"/>
<rect x="405.5" y="359.8" width="32.1" height="42.6" fill="#eef3f8"/>
<rect x="437.2" y="359.8" width="32.1" height="42.6" fill="#eef3f8"/>
<rect x="469.0" y="359.8" width="32.1" height="42.6" fill="#eef3f8"/>
<rect x="500.8" y="359.8" width="32.1" height="42.6" fill="#eef3f8"/>
<rect x="532.5" y="359.8" width="32.1" height="42.6" fill="#eef3f8"/>
<rect x="564.2" y="359.8" width="32.1" height="42.6" fill="#eef3f8"/>
<rect x="596.0" y="359.8" width="32.1" height="42.6" fill="#eef3f8"/>
<rect x="627.8" y="359.8" width="32.1" height="42.6" fill="#eef3f8"/>
<rect x="659.5" y="359.8" width="32.1" height="42.6" fill="#eef3f8"/>
<rect x="691.2" y="359.8" width="32.1" height="42.6" fill="#eef3f8"/>
<rect x="723.0" y="359.8" width="32.1" height="42.6" fill="#eef3f8"/>
<rect x="754.8" y="359.8" width="32.1" height="42.6" fill="#eef3f8"/>
<rect x="786.5" y="359.8" width="32.1" height="42.6" fill="#eef3f8"/>
<rect x="818.2" y="359.8" width="32.1" height="42.6" fill="#eef3f8"/>
<text x="103.9" y="430" text-anchor="middle" class="axis">1</text>
<text x="167.4" y="430" text-anchor="middle" class="axis">3</text>
<text x="230.9" y="430" text-anchor="middle" class="axis">5</text>
<text x="294.4" y="430" text-anchor="middle" class="axis">7</text>
<text x="357.9" y="430" text-anchor="middle" class="axis">9</text>
<text x="421.4" y="430" text-anchor="middle" class="axis">11</text>
<text x="484.9" y="430" text-anchor="middle" class="axis">13</text>
<text x="548.4" y="430" text-anchor="middle" class="axis">15</text>
<text x="611.9" y="430" text-anchor="middle" class="axis">17</text>
<text x="675.4" y="430" text-anchor="middle" class="axis">19</text>
<text x="738.9" y="430" text-anchor="middle" class="axis">21</text>
<text x="802.4" y="430" text-anchor="middle" class="axis">23</text>
<text x="78" y="90.2" text-anchor="end" class="axis">DCC 1</text>
<text x="78" y="132.4" text-anchor="end" class="axis">DCC 2</text>
<text x="78" y="174.7" text-anchor="end" class="axis">DCC 3</text>
<text x="78" y="216.9" text-anchor="end" class="axis">DCC 4</text>
<text x="78" y="259.2" text-anchor="end" class="axis">DCC 5</text>
<text x="78" y="301.4" text-anchor="end" class="axis">DCC 6</text>
<text x="78" y="343.7" text-anchor="end" class="axis">DCC 7</text>
<text x="78" y="385.9" text-anchor="end" class="axis">DCC 8</text>
<text x="469.0" y="452" text-anchor="middle" class="axis">Time (h)</text>
<text x="870" y="76" class="legend">min 0.087</text>
<text x="870" y="98" class="legend">max 1.220</text>
</svg>