<svg xmlns="http://www.w3.org/2000/svg" width="980" height="460" viewBox="0 0 980 460">
<rect width="100%" height="100%" fill="#ffffff"/>
<style>
text { font-family: Arial, 'Microsoft YaHei', sans-serif; fill: #1f2933; }
.title { font-size: 22px; font-weight: 700; }
.axis { font-size: 12px; fill: #52606d; }
.legend { font-size: 12px; fill: #334e68; }
.grid { stroke: #e4e7eb; stroke-width: 1; }
.axisline { stroke: #9aa5b1; stroke-width: 1; }
</style>
<text x="32" y="34" class="title">Inter-park Mutual Aid from Workload Reallocation</text>
<line x1="76" y1="232.0" x2="810" y2="232.0" class="axisline"/>
<rect x="80.3" y="205.9" width="22.0" height="26.1" fill="#4c78a8"/>
<rect x="80.3" y="232.0" width="22.0" height="2.6" fill="#f58518"/>
<text x="91.3" y="430" text-anchor="middle" class="axis">1</text>
<rect x="110.9" y="84.2" width="22.0" height="147.8" fill="#4c78a8"/>
<rect x="110.9" y="232.0" width="22.0" height="0.0" fill="#f58518"/>
<rect x="141.4" y="223.0" width="22.0" height="9.0" fill="#4c78a8"/>
<rect x="141.4" y="232.0" width="22.0" height="13.8" fill="#f58518"/>
<text x="152.5" y="430" text-anchor="middle" class="axis">3</text>
<rect x="172.0" y="232.0" width="22.0" height="0.0" fill="#4c78a8"/>
<rect x="172.0" y="232.0" width="22.0" height="33.6" fill="#f58518"/>
<rect x="202.6" y="232.0" width="22.0" height="0.0" fill="#4c78a8"/>
<rect x="202.6" y="232.0" width="22.0" height="32.5" fill="#f58518"/>
<text x="213.6" y="430" text-anchor="middle" class="axis">5</text>
<rect x="233.2" y="232.0" width="22.0" height="0.0" fill="#4c78a8"/>
<rect x="233.2" y="232.0" width="22.0" height="25.6" fill="#f58518"/>
<rect x="263.8" y="227.7" width="22.0" height="4.3" fill="#4c78a8"/>
<rect x="263.8" y="232.0" width="22.0" height="23.1" fill="#f58518"/>
<text x="274.8" y="430" text-anchor="middle" class="axis">7</text>
<rect x="294.4" y="227.3" width="22.0" height="4.7" fill="#4c78a8"/>
<rect x="294.4" y="232.0" width="22.0" height="22.4" fill="#f58518"/>
<rect x="324.9" y="227.4" width="22.0" height="4.6" fill="#4c78a8"/>
<rect x="324.9" y="232.0" width="22.0" height="15.0" fill="#f58518"/>
<text x="336.0" y="430" text-anchor="middle" class="axis">9</text>
<rect x="355.5" y="226.4" width="22.0" height="5.6" fill="#4c78a8"/>
<rect x="355.5" y="232.0" width="22.0" height="6.2" fill="#f58518"/>
<rect x="386.1" y="217.8" width="22.0" height="14.2" fill="#4c78a8"/>
<rect x="386.1" y="232.0" width="22.0" height="1.5" fill="#f58518"/>
<text x="397.1" y="430" text-anchor="middle" class="axis">11</text>
<rect x="416.7" y="213.9" width="22.0" height="18.1" fill="#4c78a8"/>
<rect x="416.7" y="232.0" width="22.0" height="2.6" fill="#f58518"/>
<rect x="447.3" y="213.4" width="22.0" height="18.6" fill="#4c78a8"/>
<rect x="447.3" y="232.0" width="22.0" height="3.7" fill="#f58518"/>
<text x="458.3" y="430" text-anchor="middle" class="axis">13</text>
<rect x="477.9" y="212.1" width="22.0" height="19.9" fill="#4c78a8"/>
<rect x="477.9" y="232.0" width="22.0" height="2.5" fill="#f58518"/>
<rect x="508.4" y="218.2" width="22.0" height="13.8" fill="#4c78a8"/>
<rect x="508.4" y="232.0" width="22.0" height="1.7" fill="#f58518"/>
<text x="519.5" y="430" text-anchor="middle" class="axis">15</text>
<rect x="539.0" y="225.5" width="22.0" height="6.5" fill="#4c78a8"/>
<rect x="539.0" y="232.0" width="22.0" height="2.9" fill="#f58518"/>
<rect x="569.6" y="227.9" width="22.0" height="4.1" fill="#4c78a8"/>
<rect x="569.6" y="232.0" width="22.0" height="9.4" fill="#f58518"/>
<text x="580.6" y="430" text-anchor="middle" class="axis">17</text>
<rect x="600.2" y="224.4" width="22.0" height="7.6" fill="#4c78a8"/>
<rect x="600.2" y="232.0" width="22.0" height="1.6" fill="#f58518"/>
<rect x="630.8" y="217.9" width="22.0" height="14.1" fill="#4c78a8"/>
<rect x="630.8" y="232.0" width="22.0" height="2.0" fill="#f58518"/>
<text x="641.8" y="430" text-anchor="middle" class="axis">19</text>
<rect x="661.4" y="225.7" width="22.0" height="6.3" fill="#4c78a8"/>
<rect x="661.4" y="232.0" width="22.0" height="3.4" fill="#f58518"/>
<rect x="691.9" y="227.4" width="22.0" height="4.6" fill="#4c78a8"/>
<rect x="691.9" y="232.0" width="22.0" height="12.2" fill="#f58518"/>
<text x="703.0" y="430" text-anchor="middle" class="axis">21</text>
<rect x="722.5" y="232.0" width="22.0" height="0.0" fill="#4c78a8"/>
<rect x="722.5" y="232.0" width="22.0" height="26.0" fill="#f58518"/>
<rect x="753.1" y="232.0" width="22.0" height="0.0" fill="#4c78a8"/>
<rect x="753.1" y="232.0" width="22.0" height="40.8" fill="#f58518"/>
<text x="764.1" y="430" text-anchor="middle" class="axis">23</text>
<rect x="783.7" y="232.0" width="22.0" height="0.0" fill="#4c78a8"/>
<rect x="783.7" y="232.0" width="22.0" height="44.8" fill="#f58518"/>
<path d="M91.3,208.6 L121.9,84.2 L152.5,236.8 L183.0,265.6 L213.6,264.5 L244.2,257.6 L274.8,250.8 L305.4,249.7 L336.0,242.4 L366.5,232.6 L397.1,219.2 L427.7,216.5 L458.3,217.1 L488.9,214.6 L519.5,219.9 L550.0,228.4 L580.6,237.3 L611.2,225.9 L641.8,220.0 L672.4,229.1 L703.0,239.6 L733.5,258.0 L764.1,272.8 L794.7,276.8" fill="none" stroke="#111827" stroke-width="2"/>
<text x="443.0" y="452" text-anchor="middle" class="axis">Time (h)</text>
<text x="18" y="232.0" transform="rotate(-90 18 232.0)" text-anchor="middle" class="axis">Relative exchange (p.u.)</text>
<rect x="830" y="65" width="14" height="14" fill="#4c78a8"/>
<text x="852" y="76" class="legend">Absorb workload</text>
<rect x="830" y="89" width="14" height="14" fill="#f58518"/>
<text x="852" y="100" class="legend">Release workload</text>
<rect x="830" y="113" width="14" height="14" fill="#111827"/>
<text x="852" y="124" class="legend">Net</text>
</svg>