<svg xmlns="http://www.w3.org/2000/svg" width="1080" height="760" viewBox="0 0 1080 760">
<rect width="100%" height="100%" fill="#ffffff"/>
<style>
text { font-family: Arial, 'Microsoft YaHei', sans-serif; fill: #1f2933; }
.title { font-size: 22px; font-weight: 700; }
.axis { font-size: 12px; fill: #52606d; }
.legend { font-size: 12px; fill: #334e68; }
.grid { stroke: #e4e7eb; stroke-width: 1; }
.axisline { stroke: #9aa5b1; stroke-width: 1; }
</style>
<text x="32" y="34" class="title">Coupled Coordination of Microgrids and Data Centers</text>
<text x="82" y="46" class="legend" style="font-weight:700">Microgrid 1 local balance: generation/storage vs load + data centers</text>
<line x1="82" y1="145.5" x2="890" y2="145.5" class="axisline"/>
<line x1="82" y1="233.0" x2="890" y2="233.0" class="grid"/>
<line x1="82" y1="189.2" x2="890" y2="189.2" class="grid"/>
<line x1="82" y1="101.8" x2="890" y2="101.8" class="grid"/>
<line x1="82" y1="58.0" x2="890" y2="58.0" class="grid"/>
<rect x="88.1" y="113.7" width="21.5" height="31.8" fill="#8e6c8a" opacity="0.86"/>
<rect x="88.1" y="65.8" width="21.5" height="47.9" fill="#54a24b" opacity="0.86"/>
<rect x="88.1" y="63.8" width="21.5" height="2.0" fill="#72b7b2" opacity="0.86"/>
<rect x="88.1" y="145.5" width="21.5" height="11.9" fill="#9aa5b1" opacity="0.72"/>
<rect x="88.1" y="157.4" width="21.5" height="18.0" fill="#4c78a8" opacity="0.72"/>
<rect x="88.1" y="175.4" width="21.5" height="0.0" fill="#f58518" opacity="0.72"/>
<rect x="121.7" y="106.6" width="21.5" height="38.9" fill="#8e6c8a" opacity="0.86"/>
<rect x="121.7" y="60.9" width="21.5" height="45.7" fill="#54a24b" opacity="0.86"/>
<rect x="121.7" y="60.9" width="21.5" height="0.0" fill="#72b7b2" opacity="0.86"/>
<rect x="121.7" y="145.5" width="21.5" height="12.8" fill="#9aa5b1" opacity="0.72"/>
<rect x="121.7" y="158.3" width="21.5" height="29.6" fill="#4c78a8" opacity="0.72"/>
<rect x="121.7" y="187.9" width="21.5" height="1.8" fill="#f58518" opacity="0.72"/>
<rect x="155.4" y="106.6" width="21.5" height="38.9" fill="#8e6c8a" opacity="0.86"/>
<rect x="155.4" y="57.8" width="21.5" height="48.8" fill="#54a24b" opacity="0.86"/>
<rect x="155.4" y="57.8" width="21.5" height="0.0" fill="#72b7b2" opacity="0.86"/>
<rect x="155.4" y="145.5" width="21.5" height="12.7" fill="#9aa5b1" opacity="0.72"/>
<rect x="155.4" y="158.2" width="21.5" height="15.4" fill="#4c78a8" opacity="0.72"/>
<rect x="155.4" y="173.6" width="21.5" height="6.4" fill="#f58518" opacity="0.72"/>
<rect x="189.1" y="117.1" width="21.5" height="28.4" fill="#8e6c8a" opacity="0.86"/>
<rect x="189.1" y="67.8" width="21.5" height="49.3" fill="#54a24b" opacity="0.86"/>
<rect x="189.1" y="67.8" width="21.5" height="0.0" fill="#72b7b2" opacity="0.86"/>
<rect x="189.1" y="145.5" width="21.5" height="12.9" fill="#9aa5b1" opacity="0.72"/>
<rect x="189.1" y="158.4" width="21.5" height="12.7" fill="#4c78a8" opacity="0.72"/>
<rect x="189.1" y="171.0" width="21.5" height="1.2" fill="#f58518" opacity="0.72"/>
<rect x="222.7" y="115.9" width="21.5" height="29.6" fill="#8e6c8a" opacity="0.86"/>
<rect x="222.7" y="68.4" width="21.5" height="47.4" fill="#54a24b" opacity="0.86"/>
<rect x="222.7" y="68.4" width="21.5" height="0.0" fill="#72b7b2" opacity="0.86"/>
<rect x="222.7" y="145.5" width="21.5" height="13.0" fill="#9aa5b1" opacity="0.72"/>
<rect x="222.7" y="158.5" width="21.5" height="12.8" fill="#4c78a8" opacity="0.72"/>
<rect x="222.7" y="171.3" width="21.5" height="0.3" fill="#f58518" opacity="0.72"/>
<rect x="256.4" y="116.3" width="21.5" height="29.2" fill="#8e6c8a" opacity="0.86"/>
<rect x="256.4" y="64.5" width="21.5" height="51.9" fill="#54a24b" opacity="0.86"/>
<rect x="256.4" y="64.5" width="21.5" height="0.0" fill="#72b7b2" opacity="0.86"/>
<rect x="256.4" y="145.5" width="21.5" height="13.3" fill="#9aa5b1" opacity="0.72"/>
<rect x="256.4" y="158.8" width="21.5" height="13.4" fill="#4c78a8" opacity="0.72"/>
<rect x="256.4" y="172.2" width="21.5" height="0.3" fill="#f58518" opacity="0.72"/>
<rect x="290.1" y="104.6" width="21.5" height="40.9" fill="#8e6c8a" opacity="0.86"/>
<rect x="290.1" y="56.4" width="21.5" height="48.2" fill="#54a24b" opacity="0.86"/>
<rect x="290.1" y="56.4" width="21.5" height="0.0" fill="#72b7b2" opacity="0.86"/>
<rect x="290.1" y="145.5" width="21.5" height="14.8" fill="#9aa5b1" opacity="0.72"/>
<rect x="290.1" y="160.3" width="21.5" height="14.1" fill="#4c78a8" opacity="0.72"/>
<rect x="290.1" y="174.4" width="21.5" height="0.0" fill="#f58518" opacity="0.72"/>
<rect x="323.7" y="92.4" width="21.5" height="53.1" fill="#8e6c8a" opacity="0.86"/>
<rect x="323.7" y="51.7" width="21.5" height="40.7" fill="#54a24b" opacity="0.86"/>
<rect x="323.7" y="51.7" width="21.5" height="0.0" fill="#72b7b2" opacity="0.86"/>
<rect x="323.7" y="145.5" width="21.5" height="15.8" fill="#9aa5b1" opacity="0.72"/>
<rect x="323.7" y="161.3" width="21.5" height="14.2" fill="#4c78a8" opacity="0.72"/>
<rect x="323.7" y="175.4" width="21.5" height="0.0" fill="#f58518" opacity="0.72"/>
<rect x="357.4" y="99.9" width="21.5" height="45.6" fill="#8e6c8a" opacity="0.86"/>
<rect x="357.4" y="51.2" width="21.5" height="48.7" fill="#54a24b" opacity="0.86"/>
<rect x="357.4" y="51.2" width="21.5" height="0.0" fill="#72b7b2" opacity="0.86"/>
<rect x="357.4" y="145.5" width="21.5" height="15.4" fill="#9aa5b1" opacity="0.72"/>
<rect x="357.4" y="160.9" width="21.5" height="14.8" fill="#4c78a8" opacity="0.72"/>
<rect x="357.4" y="175.7" width="21.5" height="0.0" fill="#f58518" opacity="0.72"/>
<rect x="391.1" y="97.1" width="21.5" height="48.4" fill="#8e6c8a" opacity="0.86"/>
<rect x="391.1" y="50.2" width="21.5" height="46.8" fill="#54a24b" opacity="0.86"/>
<rect x="391.1" y="50.2" width="21.5" height="0.0" fill="#72b7b2" opacity="0.86"/>
<rect x="391.1" y="145.5" width="21.5" height="15.3" fill="#9aa5b1" opacity="0.72"/>
<rect x="391.1" y="160.8" width="21.5" height="15.8" fill="#4c78a8" opacity="0.72"/>
<rect x="391.1" y="176.5" width="21.5" height="0.0" fill="#f58518" opacity="0.72"/>
<rect x="424.7" y="85.8" width="21.5" height="59.7" fill="#8e6c8a" opacity="0.86"/>
<rect x="424.7" y="39.2" width="21.5" height="46.6" fill="#54a24b" opacity="0.86"/>
<rect x="424.7" y="36.5" width="21.5" height="2.7" fill="#72b7b2" opacity="0.86"/>
<rect x="424.7" y="145.5" width="21.5" height="17.8" fill="#9aa5b1" opacity="0.72"/>
<rect x="424.7" y="163.3" width="21.5" height="17.0" fill="#4c78a8" opacity="0.72"/>
<rect x="424.7" y="180.4" width="21.5" height="0.0" fill="#f58518" opacity="0.72"/>
<rect x="458.4" y="86.9" width="21.5" height="58.6" fill="#8e6c8a" opacity="0.86"/>
<rect x="458.4" y="38.5" width="21.5" height="48.4" fill="#54a24b" opacity="0.86"/>
<rect x="458.4" y="37.0" width="21.5" height="1.5" fill="#72b7b2" opacity="0.86"/>
<rect x="458.4" y="145.5" width="21.5" height="17.8" fill="#9aa5b1" opacity="0.72"/>
<rect x="458.4" y="163.3" width="21.5" height="17.3" fill="#4c78a8" opacity="0.72"/>
<rect x="458.4" y="180.6" width="21.5" height="0.0" fill="#f58518" opacity="0.72"/>
<rect x="492.1" y="86.1" width="21.5" height="59.4" fill="#8e6c8a" opacity="0.86"/>
<rect x="492.1" y="38.9" width="21.5" height="47.1" fill="#54a24b" opacity="0.86"/>
<rect x="492.1" y="36.5" width="21.5" height="2.4" fill="#72b7b2" opacity="0.86"/>
<rect x="492.1" y="145.5" width="21.5" height="17.7" fill="#9aa5b1" opacity="0.72"/>
<rect x="492.1" y="163.2" width="21.5" height="17.2" fill="#4c78a8" opacity="0.72"/>
<rect x="492.1" y="180.4" width="21.5" height="0.0" fill="#f58518" opacity="0.72"/>
<rect x="525.7" y="86.2" width="21.5" height="59.3" fill="#8e6c8a" opacity="0.86"/>
<rect x="525.7" y="40.3" width="21.5" height="45.8" fill="#54a24b" opacity="0.86"/>
<rect x="525.7" y="38.0" width="21.5" height="2.3" fill="#72b7b2" opacity="0.86"/>
<rect x="525.7" y="145.5" width="21.5" height="17.6" fill="#9aa5b1" opacity="0.72"/>
<rect x="525.7" y="163.1" width="21.5" height="17.4" fill="#4c78a8" opacity="0.72"/>
<rect x="525.7" y="180.5" width="21.5" height="0.0" fill="#f58518" opacity="0.72"/>
<rect x="559.4" y="85.4" width="21.5" height="60.1" fill="#8e6c8a" opacity="0.86"/>
<rect x="559.4" y="38.8" width="21.5" height="46.6" fill="#54a24b" opacity="0.86"/>
<rect x="559.4" y="38.5" width="21.5" height="0.3" fill="#72b7b2" opacity="0.86"/>
<rect x="559.4" y="145.5" width="21.5" height="17.8" fill="#9aa5b1" opacity="0.72"/>
<rect x="559.4" y="163.3" width="21.5" height="16.9" fill="#4c78a8" opacity="0.72"/>
<rect x="559.4" y="180.2" width="21.5" height="0.0" fill="#f58518" opacity="0.72"/>
<rect x="593.1" y="100.7" width="21.5" height="44.8" fill="#8e6c8a" opacity="0.86"/>
<rect x="593.1" y="50.4" width="21.5" height="50.3" fill="#54a24b" opacity="0.86"/>
<rect x="593.1" y="50.4" width="21.5" height="0.0" fill="#72b7b2" opacity="0.86"/>
<rect x="593.1" y="145.5" width="21.5" height="15.6" fill="#9aa5b1" opacity="0.72"/>
<rect x="593.1" y="161.1" width="21.5" height="16.1" fill="#4c78a8" opacity="0.72"/>
<rect x="593.1" y="177.3" width="21.5" height="0.0" fill="#f58518" opacity="0.72"/>
<rect x="626.7" y="105.7" width="21.5" height="39.8" fill="#8e6c8a" opacity="0.86"/>
<rect x="626.7" y="59.4" width="21.5" height="46.3" fill="#54a24b" opacity="0.86"/>
<rect x="626.7" y="59.4" width="21.5" height="0.0" fill="#72b7b2" opacity="0.86"/>
<rect x="626.7" y="145.5" width="21.5" height="14.1" fill="#9aa5b1" opacity="0.72"/>
<rect x="626.7" y="159.6" width="21.5" height="15.3" fill="#4c78a8" opacity="0.72"/>
<rect x="626.7" y="174.9" width="21.5" height="0.0" fill="#f58518" opacity="0.72"/>
<rect x="660.4" y="111.3" width="21.5" height="34.2" fill="#8e6c8a" opacity="0.86"/>
<rect x="660.4" y="62.6" width="21.5" height="48.7" fill="#54a24b" opacity="0.86"/>
<rect x="660.4" y="62.6" width="21.5" height="0.0" fill="#72b7b2" opacity="0.86"/>
<rect x="660.4" y="145.5" width="21.5" height="13.4" fill="#9aa5b1" opacity="0.72"/>
<rect x="660.4" y="158.9" width="21.5" height="16.4" fill="#4c78a8" opacity="0.72"/>
<rect x="660.4" y="175.3" width="21.5" height="1.2" fill="#f58518" opacity="0.72"/>
<rect x="694.1" y="104.7" width="21.5" height="40.8" fill="#8e6c8a" opacity="0.86"/>
<rect x="694.1" y="58.0" width="21.5" height="46.6" fill="#54a24b" opacity="0.86"/>
<rect x="694.1" y="58.0" width="21.5" height="0.0" fill="#72b7b2" opacity="0.86"/>
<rect x="694.1" y="145.5" width="21.5" height="13.9" fill="#9aa5b1" opacity="0.72"/>
<rect x="694.1" y="159.4" width="21.5" height="16.9" fill="#4c78a8" opacity="0.72"/>
<rect x="694.1" y="176.3" width="21.5" height="0.0" fill="#f58518" opacity="0.72"/>
<rect x="727.7" y="111.2" width="21.5" height="34.3" fill="#8e6c8a" opacity="0.86"/>
<rect x="727.7" y="64.0" width="21.5" height="47.2" fill="#54a24b" opacity="0.86"/>
<rect x="727.7" y="64.0" width="21.5" height="0.0" fill="#72b7b2" opacity="0.86"/>
<rect x="727.7" y="145.5" width="21.5" height="12.9" fill="#9aa5b1" opacity="0.72"/>
<rect x="727.7" y="158.4" width="21.5" height="16.1" fill="#4c78a8" opacity="0.72"/>
<rect x="727.7" y="174.5" width="21.5" height="0.3" fill="#f58518" opacity="0.72"/>
<rect x="761.4" y="113.9" width="21.5" height="31.6" fill="#8e6c8a" opacity="0.86"/>
<rect x="761.4" y="66.4" width="21.5" height="47.5" fill="#54a24b" opacity="0.86"/>
<rect x="761.4" y="66.4" width="21.5" height="0.0" fill="#72b7b2" opacity="0.86"/>
<rect x="761.4" y="145.5" width="21.5" height="13.2" fill="#9aa5b1" opacity="0.72"/>
<rect x="761.4" y="158.7" width="21.5" height="15.1" fill="#4c78a8" opacity="0.72"/>
<rect x="761.4" y="173.8" width="21.5" height="0.3" fill="#f58518" opacity="0.72"/>
<rect x="795.1" y="106.6" width="21.5" height="38.9" fill="#8e6c8a" opacity="0.86"/>
<rect x="795.1" y="57.0" width="21.5" height="49.6" fill="#54a24b" opacity="0.86"/>
<rect x="795.1" y="57.0" width="21.5" height="0.0" fill="#72b7b2" opacity="0.86"/>
<rect x="795.1" y="145.5" width="21.5" height="15.4" fill="#9aa5b1" opacity="0.72"/>
<rect x="795.1" y="160.9" width="21.5" height="13.4" fill="#4c78a8" opacity="0.72"/>
<rect x="795.1" y="174.3" width="21.5" height="0.3" fill="#f58518" opacity="0.72"/>
<rect x="828.7" y="106.7" width="21.5" height="38.8" fill="#8e6c8a" opacity="0.86"/>
<rect x="828.7" y="60.5" width="21.5" height="46.2" fill="#54a24b" opacity="0.86"/>
<rect x="828.7" y="60.5" width="21.5" height="0.0" fill="#72b7b2" opacity="0.86"/>
<rect x="828.7" y="145.5" width="21.5" height="15.4" fill="#9aa5b1" opacity="0.72"/>
<rect x="828.7" y="160.9" width="21.5" height="12.0" fill="#4c78a8" opacity="0.72"/>
<rect x="828.7" y="172.9" width="21.5" height="0.4" fill="#f58518" opacity="0.72"/>
<rect x="862.4" y="117.0" width="21.5" height="28.5" fill="#8e6c8a" opacity="0.86"/>
<rect x="862.4" y="70.8" width="21.5" height="46.2" fill="#54a24b" opacity="0.86"/>
<rect x="862.4" y="70.8" width="21.5" height="0.0" fill="#72b7b2" opacity="0.86"/>
<rect x="862.4" y="145.5" width="21.5" height="13.5" fill="#9aa5b1" opacity="0.72"/>
<rect x="862.4" y="159.0" width="21.5" height="11.6" fill="#4c78a8" opacity="0.72"/>
<rect x="862.4" y="170.6" width="21.5" height="0.3" fill="#f58518" opacity="0.72"/>
<path d="M82.0,93.7 L117.1,105.1 L152.3,92.3 L187.4,94.5 L222.5,94.5 L257.7,91.5 L292.8,85.3 L327.9,81.6 L363.0,81.5 L398.2,81.3 L433.3,71.3 L468.4,72.1 L503.6,71.4 L538.7,73.0 L573.8,73.2 L609.0,82.2 L644.1,88.8 L679.2,93.5 L714.3,88.9 L749.5,93.3 L784.6,95.1 L819.7,86.0 L854.9,88.3 L890.0,96.2" fill="none" stroke="#111827" stroke-width="2.3"/>
<text x="82" y="255" class="legend" style="font-weight:700">Microgrid 2 local balance: generation vs native load</text>
<line x1="82" y1="354.5" x2="890" y2="354.5" class="axisline"/>
<line x1="82" y1="442.0" x2="890" y2="442.0" class="grid"/>
<line x1="82" y1="398.2" x2="890" y2="398.2" class="grid"/>
<line x1="82" y1="310.8" x2="890" y2="310.8" class="grid"/>
<line x1="82" y1="267.0" x2="890" y2="267.0" class="grid"/>
<rect x="88.1" y="354.5" width="21.5" height="0.0" fill="#8e6c8a" opacity="0.86"/>
<rect x="88.1" y="354.5" width="21.5" height="0.0" fill="#54a24b" opacity="0.86"/>
<rect x="88.1" y="354.5" width="21.5" height="0.0" fill="#72b7b2" opacity="0.86"/>
<rect x="88.1" y="354.5" width="21.5" height="49.5" fill="#9aa5b1" opacity="0.72"/>
<rect x="88.1" y="404.0" width="21.5" height="0.0" fill="#4c78a8" opacity="0.72"/>
<rect x="88.1" y="404.0" width="21.5" height="0.0" fill="#f58518" opacity="0.72"/>
<rect x="121.7" y="354.5" width="21.5" height="0.0" fill="#8e6c8a" opacity="0.86"/>
<rect x="121.7" y="354.5" width="21.5" height="0.0" fill="#54a24b" opacity="0.86"/>
<rect x="121.7" y="354.5" width="21.5" height="0.0" fill="#72b7b2" opacity="0.86"/>
<rect x="121.7" y="354.5" width="21.5" height="53.1" fill="#9aa5b1" opacity="0.72"/>
<rect x="121.7" y="407.6" width="21.5" height="0.0" fill="#4c78a8" opacity="0.72"/>
<rect x="121.7" y="407.6" width="21.5" height="0.0" fill="#f58518" opacity="0.72"/>
<rect x="155.4" y="354.5" width="21.5" height="0.0" fill="#8e6c8a" opacity="0.86"/>
<rect x="155.4" y="354.5" width="21.5" height="0.0" fill="#54a24b" opacity="0.86"/>
<rect x="155.4" y="354.5" width="21.5" height="0.0" fill="#72b7b2" opacity="0.86"/>
<rect x="155.4" y="354.5" width="21.5" height="53.0" fill="#9aa5b1" opacity="0.72"/>
<rect x="155.4" y="407.5" width="21.5" height="0.0" fill="#4c78a8" opacity="0.72"/>
<rect x="155.4" y="407.5" width="21.5" height="0.0" fill="#f58518" opacity="0.72"/>
<rect x="189.1" y="354.5" width="21.5" height="0.0" fill="#8e6c8a" opacity="0.86"/>
<rect x="189.1" y="354.5" width="21.5" height="0.0" fill="#54a24b" opacity="0.86"/>
<rect x="189.1" y="354.5" width="21.5" height="0.0" fill="#72b7b2" opacity="0.86"/>
<rect x="189.1" y="354.5" width="21.5" height="53.4" fill="#9aa5b1" opacity="0.72"/>
<rect x="189.1" y="407.9" width="21.5" height="0.0" fill="#4c78a8" opacity="0.72"/>
<rect x="189.1" y="407.9" width="21.5" height="0.0" fill="#f58518" opacity="0.72"/>
<rect x="222.7" y="354.5" width="21.5" height="0.0" fill="#8e6c8a" opacity="0.86"/>
<rect x="222.7" y="354.5" width="21.5" height="0.0" fill="#54a24b" opacity="0.86"/>
<rect x="222.7" y="354.5" width="21.5" height="0.0" fill="#72b7b2" opacity="0.86"/>
<rect x="222.7" y="354.5" width="21.5" height="53.9" fill="#9aa5b1" opacity="0.72"/>
<rect x="222.7" y="408.4" width="21.5" height="0.0" fill="#4c78a8" opacity="0.72"/>
<rect x="222.7" y="408.4" width="21.5" height="0.0" fill="#f58518" opacity="0.72"/>
<rect x="256.4" y="354.5" width="21.5" height="0.0" fill="#8e6c8a" opacity="0.86"/>
<rect x="256.4" y="354.5" width="21.5" height="0.0" fill="#54a24b" opacity="0.86"/>
<rect x="256.4" y="354.5" width="21.5" height="0.0" fill="#72b7b2" opacity="0.86"/>
<rect x="256.4" y="354.5" width="21.5" height="55.2" fill="#9aa5b1" opacity="0.72"/>
<rect x="256.4" y="409.7" width="21.5" height="0.0" fill="#4c78a8" opacity="0.72"/>
<rect x="256.4" y="409.7" width="21.5" height="0.0" fill="#f58518" opacity="0.72"/>
<rect x="290.1" y="354.5" width="21.5" height="0.0" fill="#8e6c8a" opacity="0.86"/>
<rect x="290.1" y="354.5" width="21.5" height="0.0" fill="#54a24b" opacity="0.86"/>
<rect x="290.1" y="354.5" width="21.5" height="0.0" fill="#72b7b2" opacity="0.86"/>
<rect x="290.1" y="354.5" width="21.5" height="61.7" fill="#9aa5b1" opacity="0.72"/>
<rect x="290.1" y="416.2" width="21.5" height="0.0" fill="#4c78a8" opacity="0.72"/>
<rect x="290.1" y="416.2" width="21.5" height="0.0" fill="#f58518" opacity="0.72"/>
<rect x="323.7" y="354.5" width="21.5" height="0.0" fill="#8e6c8a" opacity="0.86"/>
<rect x="323.7" y="354.5" width="21.5" height="0.0" fill="#54a24b" opacity="0.86"/>
<rect x="323.7" y="354.5" width="21.5" height="0.0" fill="#72b7b2" opacity="0.86"/>
<rect x="323.7" y="354.5" width="21.5" height="65.5" fill="#9aa5b1" opacity="0.72"/>
<rect x="323.7" y="420.0" width="21.5" height="0.0" fill="#4c78a8" opacity="0.72"/>
<rect x="323.7" y="420.0" width="21.5" height="0.0" fill="#f58518" opacity="0.72"/>
<rect x="357.4" y="354.5" width="21.5" height="0.0" fill="#8e6c8a" opacity="0.86"/>
<rect x="357.4" y="354.5" width="21.5" height="0.0" fill="#54a24b" opacity="0.86"/>
<rect x="357.4" y="354.5" width="21.5" height="0.0" fill="#72b7b2" opacity="0.86"/>
<rect x="357.4" y="354.5" width="21.5" height="64.0" fill="#9aa5b1" opacity="0.72"/>
<rect x="357.4" y="418.5" width="21.5" height="0.0" fill="#4c78a8" opacity="0.72"/>
<rect x="357.4" y="418.5" width="21.5" height="0.0" fill="#f58518" opacity="0.72"/>
<rect x="391.1" y="354.5" width="21.5" height="0.0" fill="#8e6c8a" opacity="0.86"/>
<rect x="391.1" y="354.5" width="21.5" height="0.0" fill="#54a24b" opacity="0.86"/>
<rect x="391.1" y="354.5" width="21.5" height="0.0" fill="#72b7b2" opacity="0.86"/>
<rect x="391.1" y="354.5" width="21.5" height="63.5" fill="#9aa5b1" opacity="0.72"/>
<rect x="391.1" y="418.0" width="21.5" height="0.0" fill="#4c78a8" opacity="0.72"/>
<rect x="391.1" y="418.0" width="21.5" height="0.0" fill="#f58518" opacity="0.72"/>
<rect x="424.7" y="354.5" width="21.5" height="0.0" fill="#8e6c8a" opacity="0.86"/>
<rect x="424.7" y="354.5" width="21.5" height="0.0" fill="#54a24b" opacity="0.86"/>
<rect x="424.7" y="354.5" width="21.5" height="0.0" fill="#72b7b2" opacity="0.86"/>
<rect x="424.7" y="354.5" width="21.5" height="74.2" fill="#9aa5b1" opacity="0.72"/>
<rect x="424.7" y="428.7" width="21.5" height="0.0" fill="#4c78a8" opacity="0.72"/>
<rect x="424.7" y="428.7" width="21.5" height="0.0" fill="#f58518" opacity="0.72"/>
<rect x="458.4" y="354.5" width="21.5" height="0.0" fill="#8e6c8a" opacity="0.86"/>
<rect x="458.4" y="354.5" width="21.5" height="0.0" fill="#54a24b" opacity="0.86"/>
<rect x="458.4" y="354.5" width="21.5" height="0.0" fill="#72b7b2" opacity="0.86"/>
<rect x="458.4" y="354.5" width="21.5" height="74.0" fill="#9aa5b1" opacity="0.72"/>
<rect x="458.4" y="428.5" width="21.5" height="0.0" fill="#4c78a8" opacity="0.72"/>
<rect x="458.4" y="428.5" width="21.5" height="0.0" fill="#f58518" opacity="0.72"/>
<rect x="492.1" y="354.5" width="21.5" height="0.0" fill="#8e6c8a" opacity="0.86"/>
<rect x="492.1" y="354.5" width="21.5" height="0.0" fill="#54a24b" opacity="0.86"/>
<rect x="492.1" y="354.5" width="21.5" height="0.0" fill="#72b7b2" opacity="0.86"/>
<rect x="492.1" y="354.5" width="21.5" height="73.6" fill="#9aa5b1" opacity="0.72"/>
<rect x="492.1" y="428.1" width="21.5" height="0.0" fill="#4c78a8" opacity="0.72"/>
<rect x="492.1" y="428.1" width="21.5" height="0.0" fill="#f58518" opacity="0.72"/>
<rect x="525.7" y="354.5" width="21.5" height="0.0" fill="#8e6c8a" opacity="0.86"/>
<rect x="525.7" y="354.5" width="21.5" height="0.0" fill="#54a24b" opacity="0.86"/>
<rect x="525.7" y="354.5" width="21.5" height="0.0" fill="#72b7b2" opacity="0.86"/>
<rect x="525.7" y="354.5" width="21.5" height="73.0" fill="#9aa5b1" opacity="0.72"/>
<rect x="525.7" y="427.5" width="21.5" height="0.0" fill="#4c78a8" opacity="0.72"/>
<rect x="525.7" y="427.5" width="21.5" height="0.0" fill="#f58518" opacity="0.72"/>
<rect x="559.4" y="351.7" width="21.5" height="2.8" fill="#8e6c8a" opacity="0.86"/>
<rect x="559.4" y="351.7" width="21.5" height="0.0" fill="#54a24b" opacity="0.86"/>
<rect x="559.4" y="351.7" width="21.5" height="0.0" fill="#72b7b2" opacity="0.86"/>
<rect x="559.4" y="354.5" width="21.5" height="73.8" fill="#9aa5b1" opacity="0.72"/>
<rect x="559.4" y="428.3" width="21.5" height="0.0" fill="#4c78a8" opacity="0.72"/>
<rect x="559.4" y="428.3" width="21.5" height="0.0" fill="#f58518" opacity="0.72"/>
<rect x="593.1" y="351.7" width="21.5" height="2.8" fill="#8e6c8a" opacity="0.86"/>
<rect x="593.1" y="351.7" width="21.5" height="0.0" fill="#54a24b" opacity="0.86"/>
<rect x="593.1" y="351.7" width="21.5" height="0.0" fill="#72b7b2" opacity="0.86"/>
<rect x="593.1" y="354.5" width="21.5" height="64.9" fill="#9aa5b1" opacity="0.72"/>
<rect x="593.1" y="419.4" width="21.5" height="0.0" fill="#4c78a8" opacity="0.72"/>
<rect x="593.1" y="419.4" width="21.5" height="0.0" fill="#f58518" opacity="0.72"/>
<rect x="626.7" y="351.7" width="21.5" height="2.8" fill="#8e6c8a" opacity="0.86"/>
<rect x="626.7" y="351.7" width="21.5" height="0.0" fill="#54a24b" opacity="0.86"/>
<rect x="626.7" y="351.7" width="21.5" height="0.0" fill="#72b7b2" opacity="0.86"/>
<rect x="626.7" y="354.5" width="21.5" height="58.7" fill="#9aa5b1" opacity="0.72"/>
<rect x="626.7" y="413.2" width="21.5" height="0.0" fill="#4c78a8" opacity="0.72"/>
<rect x="626.7" y="413.2" width="21.5" height="0.0" fill="#f58518" opacity="0.72"/>
<rect x="660.4" y="351.7" width="21.5" height="2.8" fill="#8e6c8a" opacity="0.86"/>
<rect x="660.4" y="351.7" width="21.5" height="0.0" fill="#54a24b" opacity="0.86"/>
<rect x="660.4" y="351.7" width="21.5" height="0.0" fill="#72b7b2" opacity="0.86"/>
<rect x="660.4" y="354.5" width="21.5" height="55.7" fill="#9aa5b1" opacity="0.72"/>
<rect x="660.4" y="410.2" width="21.5" height="0.0" fill="#4c78a8" opacity="0.72"/>
<rect x="660.4" y="410.2" width="21.5" height="0.0" fill="#f58518" opacity="0.72"/>
<rect x="694.1" y="351.7" width="21.5" height="2.8" fill="#8e6c8a" opacity="0.86"/>
<rect x="694.1" y="351.7" width="21.5" height="0.0" fill="#54a24b" opacity="0.86"/>
<rect x="694.1" y="351.7" width="21.5" height="0.0" fill="#72b7b2" opacity="0.86"/>
<rect x="694.1" y="354.5" width="21.5" height="57.8" fill="#9aa5b1" opacity="0.72"/>
<rect x="694.1" y="412.3" width="21.5" height="0.0" fill="#4c78a8" opacity="0.72"/>
<rect x="694.1" y="412.3" width="21.5" height="0.0" fill="#f58518" opacity="0.72"/>
<rect x="727.7" y="351.7" width="21.5" height="2.8" fill="#8e6c8a" opacity="0.86"/>
<rect x="727.7" y="351.7" width="21.5" height="0.0" fill="#54a24b" opacity="0.86"/>
<rect x="727.7" y="351.7" width="21.5" height="0.0" fill="#72b7b2" opacity="0.86"/>
<rect x="727.7" y="354.5" width="21.5" height="53.6" fill="#9aa5b1" opacity="0.72"/>
<rect x="727.7" y="408.1" width="21.5" height="0.0" fill="#4c78a8" opacity="0.72"/>
<rect x="727.7" y="408.1" width="21.5" height="0.0" fill="#f58518" opacity="0.72"/>
<rect x="761.4" y="351.7" width="21.5" height="2.8" fill="#8e6c8a" opacity="0.86"/>
<rect x="761.4" y="351.7" width="21.5" height="0.0" fill="#54a24b" opacity="0.86"/>
<rect x="761.4" y="351.7" width="21.5" height="0.0" fill="#72b7b2" opacity="0.86"/>
<rect x="761.4" y="354.5" width="21.5" height="54.9" fill="#9aa5b1" opacity="0.72"/>
<rect x="761.4" y="409.4" width="21.5" height="0.0" fill="#4c78a8" opacity="0.72"/>
<rect x="761.4" y="409.4" width="21.5" height="0.0" fill="#f58518" opacity="0.72"/>
<rect x="795.1" y="351.7" width="21.5" height="2.8" fill="#8e6c8a" opacity="0.86"/>
<rect x="795.1" y="351.7" width="21.5" height="0.0" fill="#54a24b" opacity="0.86"/>
<rect x="795.1" y="351.7" width="21.5" height="0.0" fill="#72b7b2" opacity="0.86"/>
<rect x="795.1" y="354.5" width="21.5" height="63.9" fill="#9aa5b1" opacity="0.72"/>
<rect x="795.1" y="418.4" width="21.5" height="0.0" fill="#4c78a8" opacity="0.72"/>
<rect x="795.1" y="418.4" width="21.5" height="0.0" fill="#f58518" opacity="0.72"/>
<rect x="828.7" y="351.7" width="21.5" height="2.8" fill="#8e6c8a" opacity="0.86"/>
<rect x="828.7" y="351.7" width="21.5" height="0.0" fill="#54a24b" opacity="0.86"/>
<rect x="828.7" y="351.7" width="21.5" height="0.0" fill="#72b7b2" opacity="0.86"/>
<rect x="828.7" y="354.5" width="21.5" height="63.9" fill="#9aa5b1" opacity="0.72"/>
<rect x="828.7" y="418.4" width="21.5" height="0.0" fill="#4c78a8" opacity="0.72"/>
<rect x="828.7" y="418.4" width="21.5" height="0.0" fill="#f58518" opacity="0.72"/>
<rect x="862.4" y="351.7" width="21.5" height="2.8" fill="#8e6c8a" opacity="0.86"/>
<rect x="862.4" y="351.7" width="21.5" height="0.0" fill="#54a24b" opacity="0.86"/>
<rect x="862.4" y="351.7" width="21.5" height="0.0" fill="#72b7b2" opacity="0.86"/>
<rect x="862.4" y="354.5" width="21.5" height="56.1" fill="#9aa5b1" opacity="0.72"/>
<rect x="862.4" y="410.6" width="21.5" height="0.0" fill="#4c78a8" opacity="0.72"/>
<rect x="862.4" y="410.6" width="21.5" height="0.0" fill="#f58518" opacity="0.72"/>
<path d="M82.0,404.0 L117.1,407.6 L152.3,407.5 L187.4,407.9 L222.5,408.4 L257.7,409.7 L292.8,416.2 L327.9,420.0 L363.0,418.5 L398.2,418.0 L433.3,428.7 L468.4,428.5 L503.6,428.1 L538.7,427.5 L573.8,425.4 L609.0,416.6 L644.1,410.3 L679.2,407.4 L714.3,409.4 L749.5,405.2 L784.6,406.6 L819.7,415.6 L854.9,415.6 L890.0,407.8" fill="none" stroke="#111827" stroke-width="2.3"/>
<text x="82" y="464" class="legend" style="font-weight:700">Tie-line mutual aid and DCC load-balancing coordination</text>
<line x1="82" y1="563.5" x2="890" y2="563.5" class="axisline"/>
<rect x="87.7" y="509.0" width="22.2" height="54.5" fill="#4c78a8" opacity="0.82"/>
<text x="98.8" y="734" text-anchor="middle" class="axis">1</text>
<rect x="121.4" y="520.9" width="22.2" height="42.6" fill="#4c78a8" opacity="0.82"/>
<rect x="155.1" y="507.4" width="22.2" height="56.1" fill="#4c78a8" opacity="0.82"/>
<text x="166.2" y="734" text-anchor="middle" class="axis">3</text>
<rect x="188.7" y="509.8" width="22.2" height="53.7" fill="#4c78a8" opacity="0.82"/>
<rect x="222.4" y="509.8" width="22.2" height="53.7" fill="#4c78a8" opacity="0.82"/>
<text x="233.5" y="734" text-anchor="middle" class="axis">5</text>
<rect x="256.1" y="506.6" width="22.2" height="56.9" fill="#4c78a8" opacity="0.82"/>
<rect x="289.7" y="500.0" width="22.2" height="63.5" fill="#4c78a8" opacity="0.82"/>
<text x="300.8" y="734" text-anchor="middle" class="axis">7</text>
<rect x="323.4" y="496.2" width="22.2" height="67.3" fill="#4c78a8" opacity="0.82"/>
<rect x="357.1" y="496.0" width="22.2" height="67.5" fill="#4c78a8" opacity="0.82"/>
<text x="368.2" y="734" text-anchor="middle" class="axis">9</text>
<rect x="390.7" y="495.8" width="22.2" height="67.7" fill="#4c78a8" opacity="0.82"/>
<rect x="424.4" y="485.4" width="22.2" height="78.1" fill="#4c78a8" opacity="0.82"/>
<text x="435.5" y="734" text-anchor="middle" class="axis">11</text>
<rect x="458.1" y="486.1" width="22.2" height="77.4" fill="#4c78a8" opacity="0.82"/>
<rect x="491.7" y="485.5" width="22.2" height="78.0" fill="#4c78a8" opacity="0.82"/>
<text x="502.8" y="734" text-anchor="middle" class="axis">13</text>
<rect x="525.4" y="487.2" width="22.2" height="76.3" fill="#4c78a8" opacity="0.82"/>
<rect x="559.1" y="487.3" width="22.2" height="76.2" fill="#4c78a8" opacity="0.82"/>
<text x="570.2" y="734" text-anchor="middle" class="axis">15</text>
<rect x="592.7" y="496.8" width="22.2" height="66.7" fill="#4c78a8" opacity="0.82"/>
<rect x="626.4" y="503.8" width="22.2" height="59.7" fill="#4c78a8" opacity="0.82"/>
<text x="637.5" y="734" text-anchor="middle" class="axis">17</text>
<rect x="660.1" y="508.7" width="22.2" height="54.8" fill="#4c78a8" opacity="0.82"/>
<rect x="693.7" y="503.8" width="22.2" height="59.7" fill="#4c78a8" opacity="0.82"/>
<text x="704.8" y="734" text-anchor="middle" class="axis">19</text>
<rect x="727.4" y="508.5" width="22.2" height="55.0" fill="#4c78a8" opacity="0.82"/>
<rect x="761.1" y="510.4" width="22.2" height="53.1" fill="#4c78a8" opacity="0.82"/>
<text x="772.2" y="734" text-anchor="middle" class="axis">21</text>
<rect x="794.7" y="500.8" width="22.2" height="62.7" fill="#4c78a8" opacity="0.82"/>
<rect x="828.4" y="503.2" width="22.2" height="60.3" fill="#4c78a8" opacity="0.82"/>
<text x="839.5" y="734" text-anchor="middle" class="axis">23</text>
<rect x="862.1" y="511.6" width="22.2" height="51.9" fill="#4c78a8" opacity="0.82"/>
<path d="M82.0,562.2 L117.1,541.9 L152.3,560.9 L187.4,560.9 L222.5,561.2 L257.7,559.6 L292.8,558.4 L327.9,558.4 L363.0,558.8 L398.2,558.9 L433.3,558.7 L468.4,558.4 L503.6,558.2 L538.7,558.3 L573.8,558.7 L609.0,558.9 L644.1,558.9 L679.2,559.0 L714.3,558.7 L749.5,558.9 L784.6,558.8 L819.7,559.6 L854.9,562.3 L890.0,562.6" fill="none" stroke="#111827" stroke-width="2.5"/>
<rect x="912" y="55" width="14" height="14" fill="#8e6c8a"/>
<text x="934" y="66" class="legend">thermal</text>
<rect x="912" y="79" width="14" height="14" fill="#54a24b"/>
<text x="934" y="90" class="legend">wind</text>
<rect x="912" y="103" width="14" height="14" fill="#72b7b2"/>
<text x="934" y="114" class="legend">storage discharge</text>
<rect x="912" y="127" width="14" height="14" fill="#9aa5b1"/>
<text x="934" y="138" class="legend">native load</text>
<rect x="912" y="151" width="14" height="14" fill="#4c78a8"/>
<text x="934" y="162" class="legend">data center load</text>
<rect x="912" y="175" width="14" height="14" fill="#f58518"/>
<text x="934" y="186" class="legend">storage charge</text>
<rect x="912" y="199" width="14" height="14" fill="#111827"/>
<text x="934" y="210" class="legend">net / imbalance</text>
<rect x="912" y="223" width="14" height="14" fill="#4c78a8"/>
<text x="934" y="234" class="legend">MG1 export</text>
<rect x="912" y="247" width="14" height="14" fill="#e45756"/>
<text x="934" y="258" class="legend">MG1 import</text>
<text x="486.0" y="754" text-anchor="middle" class="axis">Time (h)</text>
<text x="20" y="233" transform="rotate(-90 20 233)" text-anchor="middle" class="axis">Power balance (p.u.)</text>
</svg>